<?xml version="1.0" encoding="UTF-8" standalone="no"?>
<!DOCTYPE svg PUBLIC "-//W3C//DTD SVG 1.1//EN"
 "http://www.w3.org/Graphics/SVG/1.1/DTD/svg11.dtd">
<!-- Generated by graphviz version 2.36.0 (20140111.2315)
 -->
<!-- Title: controllers_diagram Pages: 1 -->
<svg width="796pt" height="861pt"
 viewBox="0.00 0.00 796.00 861.00" xmlns="http://www.w3.org/2000/svg" xmlns:xlink="http://www.w3.org/1999/xlink">
<g id="graph0" class="graph" transform="scale(1 1) rotate(0) translate(4 857)">
<title>controllers_diagram</title>
<polygon fill="none" stroke="none" points="-4,4 -4,-857 792,-857 792,4 -4,4"/>
<!-- _diagram_info -->
<g id="node1" class="node"><title>_diagram_info</title>
<text text-anchor="start" x="548" y="-423.6" font-family="Times,serif" font-size="13.00">Controllers diagram</text>
<text text-anchor="start" x="548" y="-409.6" font-family="Times,serif" font-size="13.00">Date: Feb 10 2016 &#45; 21:08</text>
<text text-anchor="start" x="548" y="-395.6" font-family="Times,serif" font-size="13.00">Migration version: 20160210071548</text>
<text text-anchor="start" x="548" y="-381.6" font-family="Times,serif" font-size="13.00">Generated by RailRoady 1.4.2</text>
<text text-anchor="start" x="548" y="-367.6" font-family="Times,serif" font-size="13.00">http://railroady.prestonlee.com</text>
</g>
<!-- MessagesController -->
<g id="node2" class="node"><title>MessagesController</title>
<path fill="none" stroke="black" d="M390,-288.5C390,-288.5 491,-288.5 491,-288.5 497,-288.5 503,-294.5 503,-300.5 503,-300.5 503,-549.5 503,-549.5 503,-555.5 497,-561.5 491,-561.5 491,-561.5 390,-561.5 390,-561.5 384,-561.5 378,-555.5 378,-549.5 378,-549.5 378,-300.5 378,-300.5 378,-294.5 384,-288.5 390,-288.5"/>
<text text-anchor="middle" x="440.5" y="-546.3" font-family="Times,serif" font-size="14.00">MessagesController</text>
<polyline fill="none" stroke="black" points="378,-538.5 503,-538.5 "/>
<text text-anchor="start" x="386" y="-523.3" font-family="Times,serif" font-size="14.00">create</text>
<text text-anchor="start" x="386" y="-508.3" font-family="Times,serif" font-size="14.00">createstu</text>
<text text-anchor="start" x="386" y="-493.3" font-family="Times,serif" font-size="14.00">createwy</text>
<text text-anchor="start" x="386" y="-478.3" font-family="Times,serif" font-size="14.00">createwy2</text>
<text text-anchor="start" x="386" y="-463.3" font-family="Times,serif" font-size="14.00">destroy</text>
<text text-anchor="start" x="386" y="-448.3" font-family="Times,serif" font-size="14.00">edit</text>
<text text-anchor="start" x="386" y="-433.3" font-family="Times,serif" font-size="14.00">index</text>
<text text-anchor="start" x="386" y="-418.3" font-family="Times,serif" font-size="14.00">new</text>
<text text-anchor="start" x="386" y="-403.3" font-family="Times,serif" font-size="14.00">show</text>
<text text-anchor="start" x="386" y="-388.3" font-family="Times,serif" font-size="14.00">update</text>
<polyline fill="none" stroke="black" points="378,-380.5 503,-380.5 "/>
<polyline fill="none" stroke="black" points="378,-356.5 503,-356.5 "/>
<text text-anchor="start" x="386" y="-341.3" font-family="Times,serif" font-size="14.00">_layout</text>
<text text-anchor="start" x="386" y="-326.3" font-family="Times,serif" font-size="14.00">logged_user</text>
<text text-anchor="start" x="386" y="-311.3" font-family="Times,serif" font-size="14.00">message_params</text>
<text text-anchor="start" x="386" y="-296.3" font-family="Times,serif" font-size="14.00">set_wiadomosci</text>
</g>
<!-- TeachersController -->
<g id="node3" class="node"><title>TeachersController</title>
<path fill="none" stroke="black" d="M552,-126.5C552,-126.5 649,-126.5 649,-126.5 655,-126.5 661,-132.5 661,-138.5 661,-138.5 661,-312.5 661,-312.5 661,-318.5 655,-324.5 649,-324.5 649,-324.5 552,-324.5 552,-324.5 546,-324.5 540,-318.5 540,-312.5 540,-312.5 540,-138.5 540,-138.5 540,-132.5 546,-126.5 552,-126.5"/>
<text text-anchor="middle" x="600.5" y="-309.3" font-family="Times,serif" font-size="14.00">TeachersController</text>
<polyline fill="none" stroke="black" points="540,-301.5 661,-301.5 "/>
<text text-anchor="start" x="548" y="-286.3" font-family="Times,serif" font-size="14.00">create</text>
<text text-anchor="start" x="548" y="-271.3" font-family="Times,serif" font-size="14.00">destroy</text>
<text text-anchor="start" x="548" y="-256.3" font-family="Times,serif" font-size="14.00">edit</text>
<text text-anchor="start" x="548" y="-241.3" font-family="Times,serif" font-size="14.00">new</text>
<text text-anchor="start" x="548" y="-226.3" font-family="Times,serif" font-size="14.00">show</text>
<text text-anchor="start" x="548" y="-211.3" font-family="Times,serif" font-size="14.00">update</text>
<polyline fill="none" stroke="black" points="540,-203.5 661,-203.5 "/>
<polyline fill="none" stroke="black" points="540,-179.5 661,-179.5 "/>
<text text-anchor="start" x="548" y="-164.3" font-family="Times,serif" font-size="14.00">_layout</text>
<text text-anchor="start" x="548" y="-149.3" font-family="Times,serif" font-size="14.00">set_teacher</text>
<text text-anchor="start" x="548" y="-134.3" font-family="Times,serif" font-size="14.00">teacher_params</text>
</g>
<!-- ClassescalendarController -->
<g id="node4" class="node"><title>ClassescalendarController</title>
<path fill="none" stroke="black" d="M174,-648.5C174,-648.5 308,-648.5 308,-648.5 314,-648.5 320,-654.5 320,-660.5 320,-660.5 320,-759.5 320,-759.5 320,-765.5 314,-771.5 308,-771.5 308,-771.5 174,-771.5 174,-771.5 168,-771.5 162,-765.5 162,-759.5 162,-759.5 162,-660.5 162,-660.5 162,-654.5 168,-648.5 174,-648.5"/>
<text text-anchor="middle" x="241" y="-756.3" font-family="Times,serif" font-size="14.00">ClassescalendarController</text>
<polyline fill="none" stroke="black" points="162,-748.5 320,-748.5 "/>
<text text-anchor="start" x="170" y="-733.3" font-family="Times,serif" font-size="14.00">update</text>
<polyline fill="none" stroke="black" points="162,-725.5 320,-725.5 "/>
<polyline fill="none" stroke="black" points="162,-701.5 320,-701.5 "/>
<text text-anchor="start" x="170" y="-686.3" font-family="Times,serif" font-size="14.00">_layout</text>
<text text-anchor="start" x="170" y="-671.3" font-family="Times,serif" font-size="14.00">clas_params</text>
<text text-anchor="start" x="170" y="-656.3" font-family="Times,serif" font-size="14.00">correct_teacher</text>
</g>
<!-- ResultController -->
<g id="node5" class="node"><title>ResultController</title>
<path fill="none" stroke="black" d="M210,-18.5C210,-18.5 293,-18.5 293,-18.5 299,-18.5 305,-24.5 305,-30.5 305,-30.5 305,-129.5 305,-129.5 305,-135.5 299,-141.5 293,-141.5 293,-141.5 210,-141.5 210,-141.5 204,-141.5 198,-135.5 198,-129.5 198,-129.5 198,-30.5 198,-30.5 198,-24.5 204,-18.5 210,-18.5"/>
<text text-anchor="middle" x="251.5" y="-126.3" font-family="Times,serif" font-size="14.00">ResultController</text>
<polyline fill="none" stroke="black" points="198,-118.5 305,-118.5 "/>
<text text-anchor="start" x="206" y="-103.3" font-family="Times,serif" font-size="14.00">create</text>
<polyline fill="none" stroke="black" points="198,-95.5 305,-95.5 "/>
<polyline fill="none" stroke="black" points="198,-71.5 305,-71.5 "/>
<text text-anchor="start" x="206" y="-56.3" font-family="Times,serif" font-size="14.00">_layout</text>
<text text-anchor="start" x="206" y="-41.3" font-family="Times,serif" font-size="14.00">correct_teacher</text>
<text text-anchor="start" x="206" y="-26.3" font-family="Times,serif" font-size="14.00">result_params</text>
</g>
<!-- ApplicationController -->
<g id="node6" class="node"><title>ApplicationController</title>
<path fill="none" stroke="black" d="M552,-468.5C552,-468.5 664,-468.5 664,-468.5 670,-468.5 676,-474.5 676,-480.5 676,-480.5 676,-550.5 676,-550.5 676,-556.5 670,-562.5 664,-562.5 664,-562.5 552,-562.5 552,-562.5 546,-562.5 540,-556.5 540,-550.5 540,-550.5 540,-480.5 540,-480.5 540,-474.5 546,-468.5 552,-468.5"/>
<text text-anchor="middle" x="608" y="-547.3" font-family="Times,serif" font-size="14.00">ApplicationController</text>
<polyline fill="none" stroke="black" points="540,-539.5 676,-539.5 "/>
<polyline fill="none" stroke="black" points="540,-515.5 676,-515.5 "/>
<polyline fill="none" stroke="black" points="540,-491.5 676,-491.5 "/>
<text text-anchor="start" x="548" y="-476.3" font-family="Times,serif" font-size="14.00">_layout</text>
</g>
<!-- ExercisesController -->
<g id="node7" class="node"><title>ExercisesController</title>
<path fill="none" stroke="black" d="M516,-594.5C516,-594.5 616,-594.5 616,-594.5 622,-594.5 628,-600.5 628,-606.5 628,-606.5 628,-840.5 628,-840.5 628,-846.5 622,-852.5 616,-852.5 616,-852.5 516,-852.5 516,-852.5 510,-852.5 504,-846.5 504,-840.5 504,-840.5 504,-606.5 504,-606.5 504,-600.5 510,-594.5 516,-594.5"/>
<text text-anchor="middle" x="566" y="-837.3" font-family="Times,serif" font-size="14.00">ExercisesController</text>
<polyline fill="none" stroke="black" points="504,-829.5 628,-829.5 "/>
<text text-anchor="start" x="512" y="-814.3" font-family="Times,serif" font-size="14.00">create</text>
<text text-anchor="start" x="512" y="-799.3" font-family="Times,serif" font-size="14.00">destroy</text>
<text text-anchor="start" x="512" y="-784.3" font-family="Times,serif" font-size="14.00">edit</text>
<text text-anchor="start" x="512" y="-769.3" font-family="Times,serif" font-size="14.00">index</text>
<text text-anchor="start" x="512" y="-754.3" font-family="Times,serif" font-size="14.00">lesson</text>
<text text-anchor="start" x="512" y="-739.3" font-family="Times,serif" font-size="14.00">new</text>
<text text-anchor="start" x="512" y="-724.3" font-family="Times,serif" font-size="14.00">show</text>
<text text-anchor="start" x="512" y="-709.3" font-family="Times,serif" font-size="14.00">show_exe</text>
<text text-anchor="start" x="512" y="-694.3" font-family="Times,serif" font-size="14.00">update</text>
<polyline fill="none" stroke="black" points="504,-686.5 628,-686.5 "/>
<polyline fill="none" stroke="black" points="504,-662.5 628,-662.5 "/>
<text text-anchor="start" x="512" y="-647.3" font-family="Times,serif" font-size="14.00">_layout</text>
<text text-anchor="start" x="512" y="-632.3" font-family="Times,serif" font-size="14.00">correct_teacher</text>
<text text-anchor="start" x="512" y="-617.3" font-family="Times,serif" font-size="14.00">exercise_params</text>
<text text-anchor="start" x="512" y="-602.3" font-family="Times,serif" font-size="14.00">set_exercise</text>
</g>
<!-- GroupsController -->
<g id="node8" class="node"><title>GroupsController</title>
<path fill="none" stroke="black" d="M372,-612.5C372,-612.5 460,-612.5 460,-612.5 466,-612.5 472,-618.5 472,-624.5 472,-624.5 472,-813.5 472,-813.5 472,-819.5 466,-825.5 460,-825.5 460,-825.5 372,-825.5 372,-825.5 366,-825.5 360,-819.5 360,-813.5 360,-813.5 360,-624.5 360,-624.5 360,-618.5 366,-612.5 372,-612.5"/>
<text text-anchor="middle" x="416" y="-810.3" font-family="Times,serif" font-size="14.00">GroupsController</text>
<polyline fill="none" stroke="black" points="360,-802.5 472,-802.5 "/>
<text text-anchor="start" x="368" y="-787.3" font-family="Times,serif" font-size="14.00">create</text>
<text text-anchor="start" x="368" y="-772.3" font-family="Times,serif" font-size="14.00">destroy</text>
<text text-anchor="start" x="368" y="-757.3" font-family="Times,serif" font-size="14.00">edit</text>
<text text-anchor="start" x="368" y="-742.3" font-family="Times,serif" font-size="14.00">index</text>
<text text-anchor="start" x="368" y="-727.3" font-family="Times,serif" font-size="14.00">show</text>
<text text-anchor="start" x="368" y="-712.3" font-family="Times,serif" font-size="14.00">update</text>
<polyline fill="none" stroke="black" points="360,-704.5 472,-704.5 "/>
<polyline fill="none" stroke="black" points="360,-680.5 472,-680.5 "/>
<text text-anchor="start" x="368" y="-665.3" font-family="Times,serif" font-size="14.00">_layout</text>
<text text-anchor="start" x="368" y="-650.3" font-family="Times,serif" font-size="14.00">correct_teacher</text>
<text text-anchor="start" x="368" y="-635.3" font-family="Times,serif" font-size="14.00">group_params</text>
<text text-anchor="start" x="368" y="-620.3" font-family="Times,serif" font-size="14.00">set_group</text>
</g>
<!-- SessionController -->
<g id="node9" class="node"><title>SessionController</title>
<path fill="none" stroke="black" d="M390,-108.5C390,-108.5 479,-108.5 479,-108.5 485,-108.5 491,-114.5 491,-120.5 491,-120.5 491,-234.5 491,-234.5 491,-240.5 485,-246.5 479,-246.5 479,-246.5 390,-246.5 390,-246.5 384,-246.5 378,-240.5 378,-234.5 378,-234.5 378,-120.5 378,-120.5 378,-114.5 384,-108.5 390,-108.5"/>
<text text-anchor="middle" x="434.5" y="-231.3" font-family="Times,serif" font-size="14.00">SessionController</text>
<polyline fill="none" stroke="black" points="378,-223.5 491,-223.5 "/>
<text text-anchor="start" x="386" y="-208.3" font-family="Times,serif" font-size="14.00">create</text>
<text text-anchor="start" x="386" y="-193.3" font-family="Times,serif" font-size="14.00">destroy</text>
<text text-anchor="start" x="386" y="-178.3" font-family="Times,serif" font-size="14.00">index</text>
<text text-anchor="start" x="386" y="-163.3" font-family="Times,serif" font-size="14.00">new</text>
<polyline fill="none" stroke="black" points="378,-155.5 491,-155.5 "/>
<polyline fill="none" stroke="black" points="378,-131.5 491,-131.5 "/>
<text text-anchor="start" x="386" y="-116.3" font-family="Times,serif" font-size="14.00">_layout</text>
</g>
<!-- SqresultsController -->
<g id="node10" class="node"><title>SqresultsController</title>
<path fill="none" stroke="black" d="M678,-594.5C678,-594.5 776,-594.5 776,-594.5 782,-594.5 788,-600.5 788,-606.5 788,-606.5 788,-690.5 788,-690.5 788,-696.5 782,-702.5 776,-702.5 776,-702.5 678,-702.5 678,-702.5 672,-702.5 666,-696.5 666,-690.5 666,-690.5 666,-606.5 666,-606.5 666,-600.5 672,-594.5 678,-594.5"/>
<text text-anchor="middle" x="727" y="-687.3" font-family="Times,serif" font-size="14.00">SqresultsController</text>
<polyline fill="none" stroke="black" points="666,-679.5 788,-679.5 "/>
<text text-anchor="start" x="674" y="-664.3" font-family="Times,serif" font-size="14.00">create</text>
<text text-anchor="start" x="674" y="-649.3" font-family="Times,serif" font-size="14.00">sqresult_params</text>
<polyline fill="none" stroke="black" points="666,-641.5 788,-641.5 "/>
<polyline fill="none" stroke="black" points="666,-617.5 788,-617.5 "/>
<text text-anchor="start" x="674" y="-602.3" font-family="Times,serif" font-size="14.00">_layout</text>
</g>
<!-- SidequestsController -->
<g id="node11" class="node"><title>SidequestsController</title>
<path fill="none" stroke="black" d="M66,-378.5C66,-378.5 172,-378.5 172,-378.5 178,-378.5 184,-384.5 184,-390.5 184,-390.5 184,-594.5 184,-594.5 184,-600.5 178,-606.5 172,-606.5 172,-606.5 66,-606.5 66,-606.5 60,-606.5 54,-600.5 54,-594.5 54,-594.5 54,-390.5 54,-390.5 54,-384.5 60,-378.5 66,-378.5"/>
<text text-anchor="middle" x="119" y="-591.3" font-family="Times,serif" font-size="14.00">SidequestsController</text>
<polyline fill="none" stroke="black" points="54,-583.5 184,-583.5 "/>
<text text-anchor="start" x="62" y="-568.3" font-family="Times,serif" font-size="14.00">create</text>
<text text-anchor="start" x="62" y="-553.3" font-family="Times,serif" font-size="14.00">destroy</text>
<text text-anchor="start" x="62" y="-538.3" font-family="Times,serif" font-size="14.00">edit</text>
<text text-anchor="start" x="62" y="-523.3" font-family="Times,serif" font-size="14.00">index</text>
<text text-anchor="start" x="62" y="-508.3" font-family="Times,serif" font-size="14.00">show</text>
<text text-anchor="start" x="62" y="-493.3" font-family="Times,serif" font-size="14.00">sqanswer_update</text>
<text text-anchor="start" x="62" y="-478.3" font-family="Times,serif" font-size="14.00">update</text>
<polyline fill="none" stroke="black" points="54,-470.5 184,-470.5 "/>
<polyline fill="none" stroke="black" points="54,-446.5 184,-446.5 "/>
<text text-anchor="start" x="62" y="-431.3" font-family="Times,serif" font-size="14.00">_layout</text>
<text text-anchor="start" x="62" y="-416.3" font-family="Times,serif" font-size="14.00">check_is_finished</text>
<text text-anchor="start" x="62" y="-401.3" font-family="Times,serif" font-size="14.00">set_sidequest</text>
<text text-anchor="start" x="62" y="-386.3" font-family="Times,serif" font-size="14.00">sidequest_params</text>
</g>
<!-- PresenceController -->
<g id="node12" class="node"><title>PresenceController</title>
<path fill="none" stroke="black" d="M534,-0.5C534,-0.5 630,-0.5 630,-0.5 636,-0.5 642,-6.5 642,-12.5 642,-12.5 642,-81.5 642,-81.5 642,-87.5 636,-93.5 630,-93.5 630,-93.5 534,-93.5 534,-93.5 528,-93.5 522,-87.5 522,-81.5 522,-81.5 522,-12.5 522,-12.5 522,-6.5 528,-0.5 534,-0.5"/>
<text text-anchor="middle" x="582" y="-78.3" font-family="Times,serif" font-size="14.00">PresenceController</text>
<polyline fill="none" stroke="black" points="522,-70.5 642,-70.5 "/>
<text text-anchor="start" x="530" y="-55.3" font-family="Times,serif" font-size="14.00">update</text>
<polyline fill="none" stroke="black" points="522,-47.5 642,-47.5 "/>
<polyline fill="none" stroke="black" points="522,-23.5 642,-23.5 "/>
<text text-anchor="start" x="530" y="-8.3" font-family="Times,serif" font-size="14.00">_layout</text>
</g>
<!-- StudentsController -->
<g id="node13" class="node"><title>StudentsController</title>
<path fill="none" stroke="black" d="M228,-180.5C228,-180.5 335,-180.5 335,-180.5 341,-180.5 347,-186.5 347,-192.5 347,-192.5 347,-561.5 347,-561.5 347,-567.5 341,-573.5 335,-573.5 335,-573.5 228,-573.5 228,-573.5 222,-573.5 216,-567.5 216,-561.5 216,-561.5 216,-192.5 216,-192.5 216,-186.5 222,-180.5 228,-180.5"/>
<text text-anchor="middle" x="281.5" y="-558.3" font-family="Times,serif" font-size="14.00">StudentsController</text>
<polyline fill="none" stroke="black" points="216,-550.5 347,-550.5 "/>
<text text-anchor="start" x="224" y="-535.3" font-family="Times,serif" font-size="14.00">assist</text>
<text text-anchor="start" x="224" y="-520.3" font-family="Times,serif" font-size="14.00">challenge</text>
<text text-anchor="start" x="224" y="-505.3" font-family="Times,serif" font-size="14.00">challengeconfirm</text>
<text text-anchor="start" x="224" y="-490.3" font-family="Times,serif" font-size="14.00">challengeconfirm2</text>
<text text-anchor="start" x="224" y="-475.3" font-family="Times,serif" font-size="14.00">challengeinbox</text>
<text text-anchor="start" x="224" y="-460.3" font-family="Times,serif" font-size="14.00">checksolution</text>
<text text-anchor="start" x="224" y="-445.3" font-family="Times,serif" font-size="14.00">chosechallenge</text>
<text text-anchor="start" x="224" y="-430.3" font-family="Times,serif" font-size="14.00">create</text>
<text text-anchor="start" x="224" y="-415.3" font-family="Times,serif" font-size="14.00">destroy</text>
<text text-anchor="start" x="224" y="-400.3" font-family="Times,serif" font-size="14.00">edit</text>
<text text-anchor="start" x="224" y="-385.3" font-family="Times,serif" font-size="14.00">hppotion</text>
<text text-anchor="start" x="224" y="-370.3" font-family="Times,serif" font-size="14.00">index</text>
<text text-anchor="start" x="224" y="-355.3" font-family="Times,serif" font-size="14.00">show</text>
<text text-anchor="start" x="224" y="-340.3" font-family="Times,serif" font-size="14.00">solution</text>
<text text-anchor="start" x="224" y="-325.3" font-family="Times,serif" font-size="14.00">studentprofile</text>
<text text-anchor="start" x="224" y="-310.3" font-family="Times,serif" font-size="14.00">update</text>
<polyline fill="none" stroke="black" points="216,-302.5 347,-302.5 "/>
<polyline fill="none" stroke="black" points="216,-278.5 347,-278.5 "/>
<text text-anchor="start" x="224" y="-263.3" font-family="Times,serif" font-size="14.00">_layout</text>
<text text-anchor="start" x="224" y="-248.3" font-family="Times,serif" font-size="14.00">correct_student</text>
<text text-anchor="start" x="224" y="-233.3" font-family="Times,serif" font-size="14.00">correct_teacher</text>
<text text-anchor="start" x="224" y="-218.3" font-family="Times,serif" font-size="14.00">new_student_params</text>
<text text-anchor="start" x="224" y="-203.3" font-family="Times,serif" font-size="14.00">set_student</text>
<text text-anchor="start" x="224" y="-188.3" font-family="Times,serif" font-size="14.00">student_params</text>
</g>
<!-- SqanswersController -->
<g id="node14" class="node"><title>SqanswersController</title>
<path fill="none" stroke="black" d="M12,-666.5C12,-666.5 118,-666.5 118,-666.5 124,-666.5 130,-672.5 130,-678.5 130,-678.5 130,-747.5 130,-747.5 130,-753.5 124,-759.5 118,-759.5 118,-759.5 12,-759.5 12,-759.5 6,-759.5 0,-753.5 0,-747.5 0,-747.5 0,-678.5 0,-678.5 0,-672.5 6,-666.5 12,-666.5"/>
<text text-anchor="middle" x="65" y="-744.3" font-family="Times,serif" font-size="14.00">SqanswersController</text>
<polyline fill="none" stroke="black" points="0,-736.5 130,-736.5 "/>
<text text-anchor="start" x="8" y="-721.3" font-family="Times,serif" font-size="14.00">show</text>
<polyline fill="none" stroke="black" points="0,-713.5 130,-713.5 "/>
<polyline fill="none" stroke="black" points="0,-689.5 130,-689.5 "/>
<text text-anchor="start" x="8" y="-674.3" font-family="Times,serif" font-size="14.00">_layout</text>
</g>
<!-- AnswersController -->
<g id="node15" class="node"><title>AnswersController</title>
<path fill="none" stroke="black" d="M48,-126.5C48,-126.5 143,-126.5 143,-126.5 149,-126.5 155,-132.5 155,-138.5 155,-138.5 155,-327.5 155,-327.5 155,-333.5 149,-339.5 143,-339.5 143,-339.5 48,-339.5 48,-339.5 42,-339.5 36,-333.5 36,-327.5 36,-327.5 36,-138.5 36,-138.5 36,-132.5 42,-126.5 48,-126.5"/>
<text text-anchor="middle" x="95.5" y="-324.3" font-family="Times,serif" font-size="14.00">AnswersController</text>
<polyline fill="none" stroke="black" points="36,-316.5 155,-316.5 "/>
<text text-anchor="start" x="44" y="-301.3" font-family="Times,serif" font-size="14.00">create</text>
<text text-anchor="start" x="44" y="-286.3" font-family="Times,serif" font-size="14.00">destroy</text>
<text text-anchor="start" x="44" y="-271.3" font-family="Times,serif" font-size="14.00">edit</text>
<text text-anchor="start" x="44" y="-256.3" font-family="Times,serif" font-size="14.00">index</text>
<text text-anchor="start" x="44" y="-241.3" font-family="Times,serif" font-size="14.00">show</text>
<text text-anchor="start" x="44" y="-226.3" font-family="Times,serif" font-size="14.00">update</text>
<polyline fill="none" stroke="black" points="36,-218.5 155,-218.5 "/>
<polyline fill="none" stroke="black" points="36,-194.5 155,-194.5 "/>
<text text-anchor="start" x="44" y="-179.3" font-family="Times,serif" font-size="14.00">_layout</text>
<text text-anchor="start" x="44" y="-164.3" font-family="Times,serif" font-size="14.00">answer_params</text>
<text text-anchor="start" x="44" y="-149.3" font-family="Times,serif" font-size="14.00">correct_teacher</text>
<text text-anchor="start" x="44" y="-134.3" font-family="Times,serif" font-size="14.00">set_answer</text>
</g>
</g>
</svg>
