<?xml version="1.0" encoding="UTF-8" standalone="no"?>
<!DOCTYPE svg PUBLIC "-//W3C//DTD SVG 1.1//EN"
 "http://www.w3.org/Graphics/SVG/1.1/DTD/svg11.dtd">
<!-- Generated by graphviz version 2.36.0 (20140111.2315)
 -->
<!-- Title: models_diagram Pages: 1 -->
<svg width="1686pt" height="658pt"
 viewBox="0.00 0.00 1686.00 658.00" xmlns="http://www.w3.org/2000/svg" xmlns:xlink="http://www.w3.org/1999/xlink">
<g id="graph0" class="graph" transform="scale(1 1) rotate(0) translate(4 654)">
<title>models_diagram</title>
<polygon fill="none" stroke="none" points="-4,4 -4,-654 1682,-654 1682,4 -4,4"/>
<!-- _diagram_info -->
<g id="node1" class="node"><title>_diagram_info</title>
<text text-anchor="start" x="8" y="-575.6" font-family="Times,serif" font-size="13.00">Models diagram</text>
<text text-anchor="start" x="8" y="-561.6" font-family="Times,serif" font-size="13.00">Date: Feb 10 2016 &#45; 21:08</text>
<text text-anchor="start" x="8" y="-547.6" font-family="Times,serif" font-size="13.00">Migration version: 20160210071548</text>
<text text-anchor="start" x="8" y="-533.6" font-family="Times,serif" font-size="13.00">Generated by RailRoady 1.4.2</text>
<text text-anchor="start" x="8" y="-519.6" font-family="Times,serif" font-size="13.00">http://railroady.prestonlee.com</text>
</g>
<!-- Sidequest -->
<g id="node2" class="node"><title>Sidequest</title>
<path fill="none" stroke="black" d="M244.5,-468C244.5,-468 351.5,-468 351.5,-468 357.5,-468 363.5,-474 363.5,-480 363.5,-480 363.5,-622 363.5,-622 363.5,-628 357.5,-634 351.5,-634 351.5,-634 244.5,-634 244.5,-634 238.5,-634 232.5,-628 232.5,-622 232.5,-622 232.5,-480 232.5,-480 232.5,-474 238.5,-468 244.5,-468"/>
<text text-anchor="middle" x="298" y="-618.8" font-family="Times,serif" font-size="14.00">Sidequest</text>
<polyline fill="none" stroke="black" points="232.5,-611 363.5,-611 "/>
<text text-anchor="start" x="240.5" y="-595.8" font-family="Times,serif" font-size="14.00">id :INTEGER</text>
<text text-anchor="start" x="240.5" y="-580.8" font-family="Times,serif" font-size="14.00">teacher_id :integer</text>
<text text-anchor="start" x="240.5" y="-565.8" font-family="Times,serif" font-size="14.00">level :integer</text>
<text text-anchor="start" x="240.5" y="-550.8" font-family="Times,serif" font-size="14.00">content :text</text>
<text text-anchor="start" x="240.5" y="-535.8" font-family="Times,serif" font-size="14.00">reward :integer</text>
<text text-anchor="start" x="240.5" y="-520.8" font-family="Times,serif" font-size="14.00">finished :boolean</text>
<text text-anchor="start" x="240.5" y="-505.8" font-family="Times,serif" font-size="14.00">finish :datetime</text>
<text text-anchor="start" x="240.5" y="-490.8" font-family="Times,serif" font-size="14.00">created_at :datetime</text>
<text text-anchor="start" x="240.5" y="-475.8" font-family="Times,serif" font-size="14.00">updated_at :datetime</text>
</g>
<!-- Classescalendar -->
<g id="node3" class="node"><title>Classescalendar</title>
<path fill="none" stroke="black" d="M394,-483C394,-483 518,-483 518,-483 524,-483 530,-489 530,-495 530,-495 530,-607 530,-607 530,-613 524,-619 518,-619 518,-619 394,-619 394,-619 388,-619 382,-613 382,-607 382,-607 382,-495 382,-495 382,-489 388,-483 394,-483"/>
<text text-anchor="middle" x="456" y="-603.8" font-family="Times,serif" font-size="14.00">Classescalendar</text>
<polyline fill="none" stroke="black" points="382,-596 530,-596 "/>
<text text-anchor="start" x="390" y="-580.8" font-family="Times,serif" font-size="14.00">id :INTEGER</text>
<text text-anchor="start" x="390" y="-565.8" font-family="Times,serif" font-size="14.00">group_id :integer</text>
<text text-anchor="start" x="390" y="-550.8" font-family="Times,serif" font-size="14.00">classes_number :integer</text>
<text text-anchor="start" x="390" y="-535.8" font-family="Times,serif" font-size="14.00">start :datetime</text>
<text text-anchor="start" x="390" y="-520.8" font-family="Times,serif" font-size="14.00">end :datetime</text>
<text text-anchor="start" x="390" y="-505.8" font-family="Times,serif" font-size="14.00">created_at :datetime</text>
<text text-anchor="start" x="390" y="-490.8" font-family="Times,serif" font-size="14.00">updated_at :datetime</text>
</g>
<!-- Medal -->
<g id="node4" class="node"><title>Medal</title>
<path fill="none" stroke="black" d="M560.5,-483C560.5,-483 667.5,-483 667.5,-483 673.5,-483 679.5,-489 679.5,-495 679.5,-495 679.5,-607 679.5,-607 679.5,-613 673.5,-619 667.5,-619 667.5,-619 560.5,-619 560.5,-619 554.5,-619 548.5,-613 548.5,-607 548.5,-607 548.5,-495 548.5,-495 548.5,-489 554.5,-483 560.5,-483"/>
<text text-anchor="middle" x="614" y="-603.8" font-family="Times,serif" font-size="14.00">Medal</text>
<polyline fill="none" stroke="black" points="548.5,-596 679.5,-596 "/>
<text text-anchor="start" x="556.5" y="-580.8" font-family="Times,serif" font-size="14.00">id :INTEGER</text>
<text text-anchor="start" x="556.5" y="-565.8" font-family="Times,serif" font-size="14.00">name :text</text>
<text text-anchor="start" x="556.5" y="-550.8" font-family="Times,serif" font-size="14.00">description :text</text>
<text text-anchor="start" x="556.5" y="-535.8" font-family="Times,serif" font-size="14.00">img :varchar</text>
<text text-anchor="start" x="556.5" y="-520.8" font-family="Times,serif" font-size="14.00">value :integer</text>
<text text-anchor="start" x="556.5" y="-505.8" font-family="Times,serif" font-size="14.00">created_at :datetime</text>
<text text-anchor="start" x="556.5" y="-490.8" font-family="Times,serif" font-size="14.00">updated_at :datetime</text>
</g>
<!-- AwardedMedal -->
<g id="node17" class="node"><title>AwardedMedal</title>
<path fill="none" stroke="black" d="M560.5,-264C560.5,-264 667.5,-264 667.5,-264 673.5,-264 679.5,-270 679.5,-276 679.5,-276 679.5,-358 679.5,-358 679.5,-364 673.5,-370 667.5,-370 667.5,-370 560.5,-370 560.5,-370 554.5,-370 548.5,-364 548.5,-358 548.5,-358 548.5,-276 548.5,-276 548.5,-270 554.5,-264 560.5,-264"/>
<text text-anchor="middle" x="614" y="-354.8" font-family="Times,serif" font-size="14.00">AwardedMedal</text>
<polyline fill="none" stroke="black" points="548.5,-347 679.5,-347 "/>
<text text-anchor="start" x="556.5" y="-331.8" font-family="Times,serif" font-size="14.00">id :INTEGER</text>
<text text-anchor="start" x="556.5" y="-316.8" font-family="Times,serif" font-size="14.00">student_id :integer</text>
<text text-anchor="start" x="556.5" y="-301.8" font-family="Times,serif" font-size="14.00">medal_id :integer</text>
<text text-anchor="start" x="556.5" y="-286.8" font-family="Times,serif" font-size="14.00">created_at :datetime</text>
<text text-anchor="start" x="556.5" y="-271.8" font-family="Times,serif" font-size="14.00">updated_at :datetime</text>
</g>
<!-- Medal&#45;&gt;AwardedMedal -->
<g id="edge1" class="edge"><title>Medal&#45;&gt;AwardedMedal</title>
<path fill="none" stroke="#63820b" d="M614,-474.792C614,-444.233 614,-409.347 614,-380.252"/>
<ellipse fill="none" stroke="#63820b" cx="614" cy="-478.896" rx="4" ry="4"/>
<polygon fill="#63820b" stroke="#63820b" points="614,-380.219 618.5,-370.219 614,-375.219 614,-370.219 614,-370.219 614,-370.219 614,-375.219 609.5,-370.219 614,-380.219 614,-380.219"/>
</g>
<!-- Answer -->
<g id="node5" class="node"><title>Answer</title>
<path fill="none" stroke="black" d="M921.5,-234C921.5,-234 1028.5,-234 1028.5,-234 1034.5,-234 1040.5,-240 1040.5,-246 1040.5,-246 1040.5,-388 1040.5,-388 1040.5,-394 1034.5,-400 1028.5,-400 1028.5,-400 921.5,-400 921.5,-400 915.5,-400 909.5,-394 909.5,-388 909.5,-388 909.5,-246 909.5,-246 909.5,-240 915.5,-234 921.5,-234"/>
<text text-anchor="middle" x="975" y="-384.8" font-family="Times,serif" font-size="14.00">Answer</text>
<polyline fill="none" stroke="black" points="909.5,-377 1040.5,-377 "/>
<text text-anchor="start" x="917.5" y="-361.8" font-family="Times,serif" font-size="14.00">id :INTEGER</text>
<text text-anchor="start" x="917.5" y="-346.8" font-family="Times,serif" font-size="14.00">teacher_id :integer</text>
<text text-anchor="start" x="917.5" y="-331.8" font-family="Times,serif" font-size="14.00">student_id :integer</text>
<text text-anchor="start" x="917.5" y="-316.8" font-family="Times,serif" font-size="14.00">exercise_id :integer</text>
<text text-anchor="start" x="917.5" y="-301.8" font-family="Times,serif" font-size="14.00">solution :text</text>
<text text-anchor="start" x="917.5" y="-286.8" font-family="Times,serif" font-size="14.00">reward :integer</text>
<text text-anchor="start" x="917.5" y="-271.8" font-family="Times,serif" font-size="14.00">read :boolean</text>
<text text-anchor="start" x="917.5" y="-256.8" font-family="Times,serif" font-size="14.00">created_at :datetime</text>
<text text-anchor="start" x="917.5" y="-241.8" font-family="Times,serif" font-size="14.00">updated_at :datetime</text>
</g>
<!-- Sqanswer -->
<g id="node6" class="node"><title>Sqanswer</title>
<path fill="none" stroke="black" d="M1082.5,-468C1082.5,-468 1189.5,-468 1189.5,-468 1195.5,-468 1201.5,-474 1201.5,-480 1201.5,-480 1201.5,-622 1201.5,-622 1201.5,-628 1195.5,-634 1189.5,-634 1189.5,-634 1082.5,-634 1082.5,-634 1076.5,-634 1070.5,-628 1070.5,-622 1070.5,-622 1070.5,-480 1070.5,-480 1070.5,-474 1076.5,-468 1082.5,-468"/>
<text text-anchor="middle" x="1136" y="-618.8" font-family="Times,serif" font-size="14.00">Sqanswer</text>
<polyline fill="none" stroke="black" points="1070.5,-611 1201.5,-611 "/>
<text text-anchor="start" x="1078.5" y="-595.8" font-family="Times,serif" font-size="14.00">id :INTEGER</text>
<text text-anchor="start" x="1078.5" y="-580.8" font-family="Times,serif" font-size="14.00">teacher_id :integer</text>
<text text-anchor="start" x="1078.5" y="-565.8" font-family="Times,serif" font-size="14.00">student_id :integer</text>
<text text-anchor="start" x="1078.5" y="-550.8" font-family="Times,serif" font-size="14.00">sidequest_id :integer</text>
<text text-anchor="start" x="1078.5" y="-535.8" font-family="Times,serif" font-size="14.00">solution :text</text>
<text text-anchor="start" x="1078.5" y="-520.8" font-family="Times,serif" font-size="14.00">reward :integer</text>
<text text-anchor="start" x="1078.5" y="-505.8" font-family="Times,serif" font-size="14.00">read :boolean</text>
<text text-anchor="start" x="1078.5" y="-490.8" font-family="Times,serif" font-size="14.00">created_at :datetime</text>
<text text-anchor="start" x="1078.5" y="-475.8" font-family="Times,serif" font-size="14.00">updated_at :datetime</text>
</g>
<!-- Teacher -->
<g id="node7" class="node"><title>Teacher</title>
<path fill="none" stroke="black" d="M748.5,-241.5C748.5,-241.5 879.5,-241.5 879.5,-241.5 885.5,-241.5 891.5,-247.5 891.5,-253.5 891.5,-253.5 891.5,-380.5 891.5,-380.5 891.5,-386.5 885.5,-392.5 879.5,-392.5 879.5,-392.5 748.5,-392.5 748.5,-392.5 742.5,-392.5 736.5,-386.5 736.5,-380.5 736.5,-380.5 736.5,-253.5 736.5,-253.5 736.5,-247.5 742.5,-241.5 748.5,-241.5"/>
<text text-anchor="middle" x="814" y="-377.3" font-family="Times,serif" font-size="14.00">Teacher</text>
<polyline fill="none" stroke="black" points="736.5,-369.5 891.5,-369.5 "/>
<text text-anchor="start" x="744.5" y="-354.3" font-family="Times,serif" font-size="14.00">id :INTEGER</text>
<text text-anchor="start" x="744.5" y="-339.3" font-family="Times,serif" font-size="14.00">login :varchar</text>
<text text-anchor="start" x="744.5" y="-324.3" font-family="Times,serif" font-size="14.00">password_digest :varchar</text>
<text text-anchor="start" x="744.5" y="-309.3" font-family="Times,serif" font-size="14.00">name :varchar</text>
<text text-anchor="start" x="744.5" y="-294.3" font-family="Times,serif" font-size="14.00">lastname :varchar</text>
<text text-anchor="start" x="744.5" y="-279.3" font-family="Times,serif" font-size="14.00">email :varchar</text>
<text text-anchor="start" x="744.5" y="-264.3" font-family="Times,serif" font-size="14.00">created_at :datetime</text>
<text text-anchor="start" x="744.5" y="-249.3" font-family="Times,serif" font-size="14.00">updated_at :datetime</text>
</g>
<!-- Group -->
<g id="node8" class="node"><title>Group</title>
<path fill="none" stroke="black" d="M654.5,-38C654.5,-38 761.5,-38 761.5,-38 767.5,-38 773.5,-44 773.5,-50 773.5,-50 773.5,-132 773.5,-132 773.5,-138 767.5,-144 761.5,-144 761.5,-144 654.5,-144 654.5,-144 648.5,-144 642.5,-138 642.5,-132 642.5,-132 642.5,-50 642.5,-50 642.5,-44 648.5,-38 654.5,-38"/>
<text text-anchor="middle" x="708" y="-128.8" font-family="Times,serif" font-size="14.00">Group</text>
<polyline fill="none" stroke="black" points="642.5,-121 773.5,-121 "/>
<text text-anchor="start" x="650.5" y="-105.8" font-family="Times,serif" font-size="14.00">id :INTEGER</text>
<text text-anchor="start" x="650.5" y="-90.8" font-family="Times,serif" font-size="14.00">teacher_id :integer</text>
<text text-anchor="start" x="650.5" y="-75.8" font-family="Times,serif" font-size="14.00">name :varchar</text>
<text text-anchor="start" x="650.5" y="-60.8" font-family="Times,serif" font-size="14.00">created_at :datetime</text>
<text text-anchor="start" x="650.5" y="-45.8" font-family="Times,serif" font-size="14.00">updated_at :datetime</text>
</g>
<!-- Teacher&#45;&gt;Group -->
<g id="edge2" class="edge"><title>Teacher&#45;&gt;Group</title>
<path fill="none" stroke="#90a773" d="M775.138,-233.876C762.584,-207.346 748.887,-178.403 737.159,-153.619"/>
<ellipse fill="none" stroke="#90a773" cx="776.993" cy="-237.796" rx="4.00002" ry="4.00002"/>
<polygon fill="#90a773" stroke="#90a773" points="737.044,-153.376 736.834,-142.412 734.905,-148.856 732.767,-144.337 732.767,-144.337 732.767,-144.337 734.905,-148.856 728.699,-146.262 737.044,-153.376 737.044,-153.376"/>
</g>
<!-- Student -->
<g id="node9" class="node"><title>Student</title>
<path fill="none" stroke="black" d="M909.5,-453C909.5,-453 1040.5,-453 1040.5,-453 1046.5,-453 1052.5,-459 1052.5,-465 1052.5,-465 1052.5,-637 1052.5,-637 1052.5,-643 1046.5,-649 1040.5,-649 1040.5,-649 909.5,-649 909.5,-649 903.5,-649 897.5,-643 897.5,-637 897.5,-637 897.5,-465 897.5,-465 897.5,-459 903.5,-453 909.5,-453"/>
<text text-anchor="middle" x="975" y="-633.8" font-family="Times,serif" font-size="14.00">Student</text>
<polyline fill="none" stroke="black" points="897.5,-626 1052.5,-626 "/>
<text text-anchor="start" x="905.5" y="-610.8" font-family="Times,serif" font-size="14.00">id :INTEGER</text>
<text text-anchor="start" x="905.5" y="-595.8" font-family="Times,serif" font-size="14.00">login :varchar</text>
<text text-anchor="start" x="905.5" y="-580.8" font-family="Times,serif" font-size="14.00">password_digest :varchar</text>
<text text-anchor="start" x="905.5" y="-565.8" font-family="Times,serif" font-size="14.00">email :varchar</text>
<text text-anchor="start" x="905.5" y="-550.8" font-family="Times,serif" font-size="14.00">name :varchar</text>
<text text-anchor="start" x="905.5" y="-535.8" font-family="Times,serif" font-size="14.00">lastname :varchar</text>
<text text-anchor="start" x="905.5" y="-520.8" font-family="Times,serif" font-size="14.00">album_number :varchar</text>
<text text-anchor="start" x="905.5" y="-505.8" font-family="Times,serif" font-size="14.00">group_id :integer</text>
<text text-anchor="start" x="905.5" y="-490.8" font-family="Times,serif" font-size="14.00">autenticated :boolean</text>
<text text-anchor="start" x="905.5" y="-475.8" font-family="Times,serif" font-size="14.00">created_at :datetime</text>
<text text-anchor="start" x="905.5" y="-460.8" font-family="Times,serif" font-size="14.00">updated_at :datetime</text>
</g>
<!-- Teacher&#45;&gt;Student -->
<g id="edge3" class="edge"><title>Teacher&#45;&gt;Student</title>
<path fill="none" stroke="#0aee97" d="M878.084,-400.978C888.077,-415.063 898.419,-429.857 908.464,-444.43"/>
<polygon fill="#0aee97" stroke="#0aee97" points="878.044,-400.921 875.912,-390.164 875.145,-396.847 872.246,-392.773 872.246,-392.773 872.246,-392.773 875.145,-396.847 868.58,-395.382 878.044,-400.921 878.044,-400.921"/>
<polygon fill="#0aee97" stroke="#0aee97" points="908.659,-444.714 910.615,-455.504 911.491,-448.835 914.324,-452.955 914.324,-452.955 914.324,-452.955 911.491,-448.835 918.032,-450.406 908.659,-444.714 908.659,-444.714"/>
</g>
<!-- Exercise -->
<g id="node11" class="node"><title>Exercise</title>
<path fill="none" stroke="black" d="M803.5,-0.5C803.5,-0.5 910.5,-0.5 910.5,-0.5 916.5,-0.5 922.5,-6.5 922.5,-12.5 922.5,-12.5 922.5,-169.5 922.5,-169.5 922.5,-175.5 916.5,-181.5 910.5,-181.5 910.5,-181.5 803.5,-181.5 803.5,-181.5 797.5,-181.5 791.5,-175.5 791.5,-169.5 791.5,-169.5 791.5,-12.5 791.5,-12.5 791.5,-6.5 797.5,-0.5 803.5,-0.5"/>
<text text-anchor="middle" x="857" y="-166.3" font-family="Times,serif" font-size="14.00">Exercise</text>
<polyline fill="none" stroke="black" points="791.5,-158.5 922.5,-158.5 "/>
<text text-anchor="start" x="799.5" y="-143.3" font-family="Times,serif" font-size="14.00">id :INTEGER</text>
<text text-anchor="start" x="799.5" y="-128.3" font-family="Times,serif" font-size="14.00">teacher_id :integer</text>
<text text-anchor="start" x="799.5" y="-113.3" font-family="Times,serif" font-size="14.00">level :integer</text>
<text text-anchor="start" x="799.5" y="-98.3" font-family="Times,serif" font-size="14.00">number :integer</text>
<text text-anchor="start" x="799.5" y="-83.3" font-family="Times,serif" font-size="14.00">reward :integer</text>
<text text-anchor="start" x="799.5" y="-68.3" font-family="Times,serif" font-size="14.00">content :text</text>
<text text-anchor="start" x="799.5" y="-53.3" font-family="Times,serif" font-size="14.00">hint :text</text>
<text text-anchor="start" x="799.5" y="-38.3" font-family="Times,serif" font-size="14.00">created_at :datetime</text>
<text text-anchor="start" x="799.5" y="-23.3" font-family="Times,serif" font-size="14.00">updated_at :datetime</text>
<text text-anchor="start" x="799.5" y="-8.3" font-family="Times,serif" font-size="14.00">variant :integer</text>
</g>
<!-- Teacher&#45;&gt;Exercise -->
<g id="edge4" class="edge"><title>Teacher&#45;&gt;Exercise</title>
<path fill="none" stroke="#2222fd" d="M829.882,-233.268C832.47,-219.783 835.176,-205.69 837.833,-191.847"/>
<ellipse fill="none" stroke="#2222fd" cx="829.073" cy="-237.483" rx="4.00001" ry="4.00001"/>
<polygon fill="#2222fd" stroke="#2222fd" points="837.872,-191.644 844.176,-182.672 838.814,-186.734 839.757,-181.824 839.757,-181.824 839.757,-181.824 838.814,-186.734 835.338,-180.975 837.872,-191.644 837.872,-191.644"/>
</g>
<!-- Group&#45;&gt;Student -->
<g id="edge5" class="edge"><title>Group&#45;&gt;Student</title>
<path fill="none" stroke="#9de3ee" d="M704.709,-152.275C701.399,-233.754 700.082,-373.725 727,-416 763.091,-472.681 831.81,-507.108 887.775,-526.848"/>
<ellipse fill="none" stroke="#9de3ee" cx="704.887" cy="-148.09" rx="4" ry="4"/>
<polygon fill="#9de3ee" stroke="#9de3ee" points="887.891,-526.888 895.893,-534.385 892.621,-528.508 897.351,-530.128 897.351,-530.128 897.351,-530.128 892.621,-528.508 898.809,-525.871 887.891,-526.888 887.891,-526.888"/>
</g>
<!-- Student&#45;&gt;Answer -->
<g id="edge11" class="edge"><title>Student&#45;&gt;Answer</title>
<path fill="none" stroke="#f97c4d" d="M975,-444.712C975,-433.308 975,-421.766 975,-410.53"/>
<ellipse fill="none" stroke="#f97c4d" cx="975" cy="-448.955" rx="4" ry="4"/>
<polygon fill="#f97c4d" stroke="#f97c4d" points="975,-410.31 979.5,-400.31 975,-405.31 975,-400.31 975,-400.31 975,-400.31 975,-405.31 970.5,-400.31 975,-410.31 975,-410.31"/>
</g>
<!-- Student&#45;&gt;Teacher -->
<g id="edge6" class="edge"><title>Student&#45;&gt;Teacher</title>
<path fill="none" stroke="#49aed2" d="M896.341,-446.33C885.397,-430.686 874.409,-414.738 864.179,-399.644"/>
<ellipse fill="none" stroke="#49aed2" cx="898.689" cy="-449.68" rx="4.00002" ry="4.00002"/>
<ellipse fill="#49aed2" stroke="#49aed2" cx="861.774" cy="-396.087" rx="4.00002" ry="4.00002"/>
</g>
<!-- Presence -->
<g id="node10" class="node"><title>Presence</title>
<path fill="none" stroke="black" d="M1071,-256.5C1071,-256.5 1195,-256.5 1195,-256.5 1201,-256.5 1207,-262.5 1207,-268.5 1207,-268.5 1207,-365.5 1207,-365.5 1207,-371.5 1201,-377.5 1195,-377.5 1195,-377.5 1071,-377.5 1071,-377.5 1065,-377.5 1059,-371.5 1059,-365.5 1059,-365.5 1059,-268.5 1059,-268.5 1059,-262.5 1065,-256.5 1071,-256.5"/>
<text text-anchor="middle" x="1133" y="-362.3" font-family="Times,serif" font-size="14.00">Presence</text>
<polyline fill="none" stroke="black" points="1059,-354.5 1207,-354.5 "/>
<text text-anchor="start" x="1067" y="-339.3" font-family="Times,serif" font-size="14.00">id :INTEGER</text>
<text text-anchor="start" x="1067" y="-324.3" font-family="Times,serif" font-size="14.00">student_id :integer</text>
<text text-anchor="start" x="1067" y="-309.3" font-family="Times,serif" font-size="14.00">classes_number :integer</text>
<text text-anchor="start" x="1067" y="-294.3" font-family="Times,serif" font-size="14.00">present :boolean</text>
<text text-anchor="start" x="1067" y="-279.3" font-family="Times,serif" font-size="14.00">created_at :datetime</text>
<text text-anchor="start" x="1067" y="-264.3" font-family="Times,serif" font-size="14.00">updated_at :datetime</text>
</g>
<!-- Student&#45;&gt;Presence -->
<g id="edge7" class="edge"><title>Student&#45;&gt;Presence</title>
<path fill="none" stroke="#e4db97" d="M1045.6,-446.336C1059.57,-425.827 1073.89,-404.798 1086.79,-385.851"/>
<ellipse fill="none" stroke="#e4db97" cx="1043.34" cy="-449.649" rx="4.00002" ry="4.00002"/>
<polygon fill="#e4db97" stroke="#e4db97" points="1086.79,-385.851 1096.14,-380.119 1089.61,-381.718 1092.42,-377.586 1092.42,-377.586 1092.42,-377.586 1089.61,-381.718 1088.7,-375.053 1086.79,-385.851 1086.79,-385.851"/>
</g>
<!-- Drawnexercise -->
<g id="node13" class="node"><title>Drawnexercise</title>
<path fill="none" stroke="black" d="M1237.5,-249C1237.5,-249 1344.5,-249 1344.5,-249 1350.5,-249 1356.5,-255 1356.5,-261 1356.5,-261 1356.5,-373 1356.5,-373 1356.5,-379 1350.5,-385 1344.5,-385 1344.5,-385 1237.5,-385 1237.5,-385 1231.5,-385 1225.5,-379 1225.5,-373 1225.5,-373 1225.5,-261 1225.5,-261 1225.5,-255 1231.5,-249 1237.5,-249"/>
<text text-anchor="middle" x="1291" y="-369.8" font-family="Times,serif" font-size="14.00">Drawnexercise</text>
<polyline fill="none" stroke="black" points="1225.5,-362 1356.5,-362 "/>
<text text-anchor="start" x="1233.5" y="-346.8" font-family="Times,serif" font-size="14.00">id :INTEGER</text>
<text text-anchor="start" x="1233.5" y="-331.8" font-family="Times,serif" font-size="14.00">student_id :integer</text>
<text text-anchor="start" x="1233.5" y="-316.8" font-family="Times,serif" font-size="14.00">level :integer</text>
<text text-anchor="start" x="1233.5" y="-301.8" font-family="Times,serif" font-size="14.00">number :integer</text>
<text text-anchor="start" x="1233.5" y="-286.8" font-family="Times,serif" font-size="14.00">exercise_id :integer</text>
<text text-anchor="start" x="1233.5" y="-271.8" font-family="Times,serif" font-size="14.00">created_at :datetime</text>
<text text-anchor="start" x="1233.5" y="-256.8" font-family="Times,serif" font-size="14.00">updated_at :datetime</text>
</g>
<!-- Student&#45;&gt;Drawnexercise -->
<g id="edge9" class="edge"><title>Student&#45;&gt;Drawnexercise</title>
<path fill="none" stroke="#867d07" d="M1059.66,-453.425C1060.44,-452.941 1061.22,-452.466 1062,-452 1122.39,-416.03 1156.96,-454.144 1216,-416 1225.84,-409.642 1234.9,-401.528 1243.06,-392.699"/>
<ellipse fill="none" stroke="#867d07" cx="1056.11" cy="-455.795" rx="4.00002" ry="4.00002"/>
<polygon fill="#867d07" stroke="#867d07" points="1243.11,-392.65 1253.09,-388.106 1246.41,-388.893 1249.71,-385.137 1249.71,-385.137 1249.71,-385.137 1246.41,-388.893 1246.32,-382.167 1243.11,-392.65 1243.11,-392.65"/>
</g>
<!-- Progre -->
<g id="node15" class="node"><title>Progre</title>
<path fill="none" stroke="black" d="M1386.5,-219C1386.5,-219 1511.5,-219 1511.5,-219 1517.5,-219 1523.5,-225 1523.5,-231 1523.5,-231 1523.5,-403 1523.5,-403 1523.5,-409 1517.5,-415 1511.5,-415 1511.5,-415 1386.5,-415 1386.5,-415 1380.5,-415 1374.5,-409 1374.5,-403 1374.5,-403 1374.5,-231 1374.5,-231 1374.5,-225 1380.5,-219 1386.5,-219"/>
<text text-anchor="middle" x="1449" y="-399.8" font-family="Times,serif" font-size="14.00">Progre</text>
<polyline fill="none" stroke="black" points="1374.5,-392 1523.5,-392 "/>
<text text-anchor="start" x="1382.5" y="-376.8" font-family="Times,serif" font-size="14.00">id :INTEGER</text>
<text text-anchor="start" x="1382.5" y="-361.8" font-family="Times,serif" font-size="14.00">student_id :integer</text>
<text text-anchor="start" x="1382.5" y="-346.8" font-family="Times,serif" font-size="14.00">points :integer</text>
<text text-anchor="start" x="1382.5" y="-331.8" font-family="Times,serif" font-size="14.00">hp :integer</text>
<text text-anchor="start" x="1382.5" y="-316.8" font-family="Times,serif" font-size="14.00">gained_points :integer</text>
<text text-anchor="start" x="1382.5" y="-301.8" font-family="Times,serif" font-size="14.00">lvl :integer</text>
<text text-anchor="start" x="1382.5" y="-286.8" font-family="Times,serif" font-size="14.00">won_challenges :integer</text>
<text text-anchor="start" x="1382.5" y="-271.8" font-family="Times,serif" font-size="14.00">lost_challenges :integer</text>
<text text-anchor="start" x="1382.5" y="-256.8" font-family="Times,serif" font-size="14.00">created_at :datetime</text>
<text text-anchor="start" x="1382.5" y="-241.8" font-family="Times,serif" font-size="14.00">updated_at :datetime</text>
<text text-anchor="start" x="1382.5" y="-226.8" font-family="Times,serif" font-size="14.00">total :integer</text>
</g>
<!-- Student&#45;&gt;Progre -->
<g id="edge8" class="edge"><title>Student&#45;&gt;Progre</title>
<path fill="none" stroke="#d7e76e" d="M1059.59,-453.296C1060.39,-452.854 1061.19,-452.421 1062,-452 1182.19,-389.193 1245.36,-479.849 1365,-416 1365.79,-415.578 1366.58,-415.145 1367.36,-414.702"/>
<ellipse fill="none" stroke="#d7e76e" cx="1055.95" cy="-455.486" rx="4.00002" ry="4.00002"/>
<ellipse fill="#d7e76e" stroke="#d7e76e" cx="1370.88" cy="-412.542" rx="4.00002" ry="4.00002"/>
</g>
<!-- Result -->
<g id="node16" class="node"><title>Result</title>
<path fill="none" stroke="black" d="M1553.5,-249C1553.5,-249 1666.5,-249 1666.5,-249 1672.5,-249 1678.5,-255 1678.5,-261 1678.5,-261 1678.5,-373 1678.5,-373 1678.5,-379 1672.5,-385 1666.5,-385 1666.5,-385 1553.5,-385 1553.5,-385 1547.5,-385 1541.5,-379 1541.5,-373 1541.5,-373 1541.5,-261 1541.5,-261 1541.5,-255 1547.5,-249 1553.5,-249"/>
<text text-anchor="middle" x="1610" y="-369.8" font-family="Times,serif" font-size="14.00">Result</text>
<polyline fill="none" stroke="black" points="1541.5,-362 1678.5,-362 "/>
<text text-anchor="start" x="1549.5" y="-346.8" font-family="Times,serif" font-size="14.00">id :INTEGER</text>
<text text-anchor="start" x="1549.5" y="-331.8" font-family="Times,serif" font-size="14.00">student_id :integer</text>
<text text-anchor="start" x="1549.5" y="-316.8" font-family="Times,serif" font-size="14.00">level :integer</text>
<text text-anchor="start" x="1549.5" y="-301.8" font-family="Times,serif" font-size="14.00">exercise_id :integer</text>
<text text-anchor="start" x="1549.5" y="-286.8" font-family="Times,serif" font-size="14.00">earned_points :integer</text>
<text text-anchor="start" x="1549.5" y="-271.8" font-family="Times,serif" font-size="14.00">created_at :datetime</text>
<text text-anchor="start" x="1549.5" y="-256.8" font-family="Times,serif" font-size="14.00">updated_at :datetime</text>
</g>
<!-- Student&#45;&gt;Result -->
<g id="edge10" class="edge"><title>Student&#45;&gt;Result</title>
<path fill="none" stroke="#77bd9e" d="M1059.94,-453.053C1060.62,-452.694 1061.31,-452.343 1062,-452 1249.67,-358.877 1346.9,-514.134 1532,-416 1543.07,-410.133 1553.1,-401.944 1562.01,-392.776"/>
<ellipse fill="none" stroke="#77bd9e" cx="1056.19" cy="-455.197" rx="4.00002" ry="4.00002"/>
<polygon fill="#77bd9e" stroke="#77bd9e" points="1562.16,-392.615 1572.23,-388.278 1565.53,-388.927 1568.91,-385.24 1568.91,-385.24 1568.91,-385.24 1565.53,-388.927 1565.59,-382.201 1562.16,-392.615 1562.16,-392.615"/>
</g>
<!-- Student&#45;&gt;AwardedMedal -->
<g id="edge12" class="edge"><title>Student&#45;&gt;AwardedMedal</title>
<path fill="none" stroke="#e3582a" d="M889.607,-520.69C830.866,-497.914 753.095,-462.394 694,-416 680.281,-405.23 667.375,-391.711 656.098,-378.185"/>
<ellipse fill="none" stroke="#e3582a" cx="893.666" cy="-522.248" rx="4.00001" ry="4.00001"/>
<polygon fill="#e3582a" stroke="#e3582a" points="655.953,-378.007 653.147,-367.406 652.803,-374.124 649.653,-370.241 649.653,-370.241 649.653,-370.241 652.803,-374.124 646.158,-373.077 655.953,-378.007 655.953,-378.007"/>
</g>
<!-- Message -->
<g id="node12" class="node"><title>Message</title>
<path fill="none" stroke="black" d="M1231.5,-468C1231.5,-468 1338.5,-468 1338.5,-468 1344.5,-468 1350.5,-474 1350.5,-480 1350.5,-480 1350.5,-622 1350.5,-622 1350.5,-628 1344.5,-634 1338.5,-634 1338.5,-634 1231.5,-634 1231.5,-634 1225.5,-634 1219.5,-628 1219.5,-622 1219.5,-622 1219.5,-480 1219.5,-480 1219.5,-474 1225.5,-468 1231.5,-468"/>
<text text-anchor="middle" x="1285" y="-618.8" font-family="Times,serif" font-size="14.00">Message</text>
<polyline fill="none" stroke="black" points="1219.5,-611 1350.5,-611 "/>
<text text-anchor="start" x="1227.5" y="-595.8" font-family="Times,serif" font-size="14.00">id :INTEGER</text>
<text text-anchor="start" x="1227.5" y="-580.8" font-family="Times,serif" font-size="14.00">subject :varchar</text>
<text text-anchor="start" x="1227.5" y="-565.8" font-family="Times,serif" font-size="14.00">content :text</text>
<text text-anchor="start" x="1227.5" y="-550.8" font-family="Times,serif" font-size="14.00">read :boolean</text>
<text text-anchor="start" x="1227.5" y="-535.8" font-family="Times,serif" font-size="14.00">direction :integer</text>
<text text-anchor="start" x="1227.5" y="-520.8" font-family="Times,serif" font-size="14.00">student_id :integer</text>
<text text-anchor="start" x="1227.5" y="-505.8" font-family="Times,serif" font-size="14.00">teacher_id :integer</text>
<text text-anchor="start" x="1227.5" y="-490.8" font-family="Times,serif" font-size="14.00">created_at :datetime</text>
<text text-anchor="start" x="1227.5" y="-475.8" font-family="Times,serif" font-size="14.00">updated_at :datetime</text>
</g>
<!-- Sqresult -->
<g id="node14" class="node"><title>Sqresult</title>
<path fill="none" stroke="black" d="M1380.5,-483C1380.5,-483 1493.5,-483 1493.5,-483 1499.5,-483 1505.5,-489 1505.5,-495 1505.5,-495 1505.5,-607 1505.5,-607 1505.5,-613 1499.5,-619 1493.5,-619 1493.5,-619 1380.5,-619 1380.5,-619 1374.5,-619 1368.5,-613 1368.5,-607 1368.5,-607 1368.5,-495 1368.5,-495 1368.5,-489 1374.5,-483 1380.5,-483"/>
<text text-anchor="middle" x="1437" y="-603.8" font-family="Times,serif" font-size="14.00">Sqresult</text>
<polyline fill="none" stroke="black" points="1368.5,-596 1505.5,-596 "/>
<text text-anchor="start" x="1376.5" y="-580.8" font-family="Times,serif" font-size="14.00">id :INTEGER</text>
<text text-anchor="start" x="1376.5" y="-565.8" font-family="Times,serif" font-size="14.00">student_id :integer</text>
<text text-anchor="start" x="1376.5" y="-550.8" font-family="Times,serif" font-size="14.00">sidequest_id :integer</text>
<text text-anchor="start" x="1376.5" y="-535.8" font-family="Times,serif" font-size="14.00">level :integer</text>
<text text-anchor="start" x="1376.5" y="-520.8" font-family="Times,serif" font-size="14.00">earned_points :integer</text>
<text text-anchor="start" x="1376.5" y="-505.8" font-family="Times,serif" font-size="14.00">created_at :datetime</text>
<text text-anchor="start" x="1376.5" y="-490.8" font-family="Times,serif" font-size="14.00">updated_at :datetime</text>
</g>
</g>
</svg>
