<?xml version="1.0" encoding="UTF-8" standalone="no"?>
<!DOCTYPE svg PUBLIC "-//W3C//DTD SVG 1.1//EN"
 "http://www.w3.org/Graphics/SVG/1.1/DTD/svg11.dtd">
<!-- Generated by graphviz version 2.36.0 (20140111.2315)
 -->
<!-- Title: models_diagram Pages: 1 -->
<svg width="1248pt" height="230pt"
 viewBox="0.00 0.00 1248.00 230.00" xmlns="http://www.w3.org/2000/svg" xmlns:xlink="http://www.w3.org/1999/xlink">
<g id="graph0" class="graph" transform="scale(1 1) rotate(0) translate(4 226)">
<title>models_diagram</title>
<polygon fill="none" stroke="none" points="-4,4 -4,-226 1244,-226 1244,4 -4,4"/>
<!-- _diagram_info -->
<g id="node1" class="node"><title>_diagram_info</title>
<text text-anchor="start" x="8" y="-207.6" font-family="Times,serif" font-size="13.00">Models diagram</text>
<text text-anchor="start" x="8" y="-193.6" font-family="Times,serif" font-size="13.00">Date: Feb 10 2016 &#45; 21:08</text>
<text text-anchor="start" x="8" y="-179.6" font-family="Times,serif" font-size="13.00">Migration version: 20160210071548</text>
<text text-anchor="start" x="8" y="-165.6" font-family="Times,serif" font-size="13.00">Generated by RailRoady 1.4.2</text>
<text text-anchor="start" x="8" y="-151.6" font-family="Times,serif" font-size="13.00">http://railroady.prestonlee.com</text>
</g>
<!-- Sidequest -->
<g id="node2" class="node"><title>Sidequest</title>
<ellipse fill="none" stroke="black" cx="277" cy="-183" rx="44.271" ry="18"/>
<text text-anchor="middle" x="277" y="-179.3" font-family="Times,serif" font-size="14.00">Sidequest</text>
</g>
<!-- Classescalendar -->
<g id="node3" class="node"><title>Classescalendar</title>
<ellipse fill="none" stroke="black" cx="407" cy="-183" rx="66.4165" ry="18"/>
<text text-anchor="middle" x="407" y="-179.3" font-family="Times,serif" font-size="14.00">Classescalendar</text>
</g>
<!-- Medal -->
<g id="node4" class="node"><title>Medal</title>
<ellipse fill="none" stroke="black" cx="526" cy="-183" rx="33.1991" ry="18"/>
<text text-anchor="middle" x="526" y="-179.3" font-family="Times,serif" font-size="14.00">Medal</text>
</g>
<!-- AwardedMedal -->
<g id="node17" class="node"><title>AwardedMedal</title>
<ellipse fill="none" stroke="black" cx="526" cy="-90" rx="65.4659" ry="18"/>
<text text-anchor="middle" x="526" y="-86.3" font-family="Times,serif" font-size="14.00">AwardedMedal</text>
</g>
<!-- Medal&#45;&gt;AwardedMedal -->
<g id="edge1" class="edge"><title>Medal&#45;&gt;AwardedMedal</title>
<path fill="none" stroke="#3efdeb" d="M526,-156.729C526,-144.725 526,-130.362 526,-118.129"/>
<ellipse fill="none" stroke="#3efdeb" cx="526" cy="-160.884" rx="4" ry="4"/>
<polygon fill="#3efdeb" stroke="#3efdeb" points="526,-118.04 530.5,-108.04 526,-113.04 526,-108.04 526,-108.04 526,-108.04 526,-113.04 521.5,-108.04 526,-118.04 526,-118.04"/>
</g>
<!-- Answer -->
<g id="node5" class="node"><title>Answer</title>
<ellipse fill="none" stroke="black" cx="782" cy="-90" rx="38.0212" ry="18"/>
<text text-anchor="middle" x="782" y="-86.3" font-family="Times,serif" font-size="14.00">Answer</text>
</g>
<!-- Sqanswer -->
<g id="node6" class="node"><title>Sqanswer</title>
<ellipse fill="none" stroke="black" cx="883" cy="-183" rx="44.271" ry="18"/>
<text text-anchor="middle" x="883" y="-179.3" font-family="Times,serif" font-size="14.00">Sqanswer</text>
</g>
<!-- Teacher -->
<g id="node7" class="node"><title>Teacher</title>
<ellipse fill="none" stroke="black" cx="687" cy="-90" rx="38.4949" ry="18"/>
<text text-anchor="middle" x="687" y="-86.3" font-family="Times,serif" font-size="14.00">Teacher</text>
</g>
<!-- Group -->
<g id="node8" class="node"><title>Group</title>
<ellipse fill="none" stroke="black" cx="620" cy="-18" rx="33.2209" ry="18"/>
<text text-anchor="middle" x="620" y="-14.3" font-family="Times,serif" font-size="14.00">Group</text>
</g>
<!-- Teacher&#45;&gt;Group -->
<g id="edge2" class="edge"><title>Teacher&#45;&gt;Group</title>
<path fill="none" stroke="#ace3c1" d="M666.045,-67.1071C658.329,-59.0457 649.576,-49.8999 641.788,-41.7635"/>
<ellipse fill="none" stroke="#ace3c1" cx="669.031" cy="-70.2262" rx="4.00002" ry="4.00002"/>
<polygon fill="#ace3c1" stroke="#ace3c1" points="641.597,-41.5644 637.934,-31.2286 638.14,-37.9523 634.683,-34.3402 634.683,-34.3402 634.683,-34.3402 638.14,-37.9523 631.432,-37.4517 641.597,-41.5644 641.597,-41.5644"/>
</g>
<!-- Student -->
<g id="node9" class="node"><title>Student</title>
<ellipse fill="none" stroke="black" cx="782" cy="-183" rx="37.5442" ry="18"/>
<text text-anchor="middle" x="782" y="-179.3" font-family="Times,serif" font-size="14.00">Student</text>
</g>
<!-- Teacher&#45;&gt;Student -->
<g id="edge3" class="edge"><title>Teacher&#45;&gt;Student</title>
<path fill="none" stroke="#a39ad9" d="M715.205,-112.434C730.809,-126.26 749.644,-144.249 763.431,-158.47"/>
<polygon fill="#a39ad9" stroke="#a39ad9" points="714.926,-112.191 710.338,-102.231 711.155,-108.908 707.384,-105.625 707.384,-105.625 707.384,-105.625 711.155,-108.908 704.429,-109.02 714.926,-112.191 714.926,-112.191"/>
<polygon fill="#a39ad9" stroke="#a39ad9" points="763.443,-158.482 767.07,-168.831 766.887,-162.107 770.332,-165.731 770.332,-165.731 770.332,-165.731 766.887,-162.107 773.594,-162.631 763.443,-158.482 763.443,-158.482"/>
</g>
<!-- Exercise -->
<g id="node11" class="node"><title>Exercise</title>
<ellipse fill="none" stroke="black" cx="712" cy="-18" rx="40.4202" ry="18"/>
<text text-anchor="middle" x="712" y="-14.3" font-family="Times,serif" font-size="14.00">Exercise</text>
</g>
<!-- Teacher&#45;&gt;Exercise -->
<g id="edge4" class="edge"><title>Teacher&#45;&gt;Exercise</title>
<path fill="none" stroke="#98ed42" d="M695.833,-64.2675C697.95,-58.34 700.221,-51.9814 702.372,-45.9587"/>
<ellipse fill="none" stroke="#98ed42" cx="694.397" cy="-68.288" rx="4.00001" ry="4.00001"/>
<polygon fill="#98ed42" stroke="#98ed42" points="702.467,-45.6927 710.068,-37.7888 704.149,-40.984 705.83,-36.2753 705.83,-36.2753 705.83,-36.2753 704.149,-40.984 701.592,-34.7618 702.467,-45.6927 702.467,-45.6927"/>
</g>
<!-- Group&#45;&gt;Student -->
<g id="edge5" class="edge"><title>Group&#45;&gt;Student</title>
<path fill="none" stroke="#412d6b" d="M619.77,-44.2267C620.825,-63.4829 625.058,-89.7277 639,-108 663.895,-140.626 707.267,-160.169 739.736,-170.904"/>
<ellipse fill="none" stroke="#412d6b" cx="619.629" cy="-40.1832" rx="4" ry="4"/>
<polygon fill="#412d6b" stroke="#412d6b" points="739.891,-170.953 748.077,-178.249 744.66,-172.455 749.429,-173.957 749.429,-173.957 749.429,-173.957 744.66,-172.455 750.781,-169.665 739.891,-170.953 739.891,-170.953"/>
</g>
<!-- Student&#45;&gt;Answer -->
<g id="edge11" class="edge"><title>Student&#45;&gt;Answer</title>
<path fill="none" stroke="#176ea8" d="M782,-156.729C782,-144.725 782,-130.362 782,-118.129"/>
<ellipse fill="none" stroke="#176ea8" cx="782" cy="-160.884" rx="4" ry="4"/>
<polygon fill="#176ea8" stroke="#176ea8" points="782,-118.04 786.5,-108.04 782,-113.04 782,-108.04 782,-108.04 782,-108.04 782,-113.04 777.5,-108.04 782,-118.04 782,-118.04"/>
</g>
<!-- Student&#45;&gt;Teacher -->
<g id="edge6" class="edge"><title>Student&#45;&gt;Teacher</title>
<path fill="none" stroke="#edb2f2" d="M755.529,-162.097C739.237,-147.765 718.958,-128.411 704.587,-113.515"/>
<ellipse fill="none" stroke="#edb2f2" cx="758.599" cy="-164.759" rx="4.00002" ry="4.00002"/>
<ellipse fill="#edb2f2" stroke="#edb2f2" cx="701.572" cy="-110.334" rx="4.00002" ry="4.00002"/>
</g>
<!-- Presence -->
<g id="node10" class="node"><title>Presence</title>
<ellipse fill="none" stroke="black" cx="881" cy="-90" rx="42.3701" ry="18"/>
<text text-anchor="middle" x="881" y="-86.3" font-family="Times,serif" font-size="14.00">Presence</text>
</g>
<!-- Student&#45;&gt;Presence -->
<g id="edge7" class="edge"><title>Student&#45;&gt;Presence</title>
<path fill="none" stroke="#b98311" d="M805.123,-160.746C820.509,-146.603 840.697,-128.046 856.382,-113.629"/>
<ellipse fill="none" stroke="#b98311" cx="801.739" cy="-163.856" rx="4.00002" ry="4.00002"/>
<polygon fill="#b98311" stroke="#b98311" points="856.761,-113.28 867.169,-109.826 860.442,-109.896 864.124,-106.513 864.124,-106.513 864.124,-106.513 860.442,-109.896 861.078,-103.2 856.761,-113.28 856.761,-113.28"/>
</g>
<!-- Drawnexercise -->
<g id="node13" class="node"><title>Drawnexercise</title>
<ellipse fill="none" stroke="black" cx="1005" cy="-90" rx="63.5411" ry="18"/>
<text text-anchor="middle" x="1005" y="-86.3" font-family="Times,serif" font-size="14.00">Drawnexercise</text>
</g>
<!-- Student&#45;&gt;Drawnexercise -->
<g id="edge9" class="edge"><title>Student&#45;&gt;Drawnexercise</title>
<path fill="none" stroke="#04acbe" d="M804.308,-161.027C811.736,-154.876 820.335,-148.58 829,-144 850.005,-132.899 906.118,-116.781 949.392,-105.238"/>
<ellipse fill="none" stroke="#04acbe" cx="800.881" cy="-163.974" rx="4.00002" ry="4.00002"/>
<polygon fill="#04acbe" stroke="#04acbe" points="949.581,-105.188 960.4,-106.978 954.414,-103.908 959.248,-102.628 959.248,-102.628 959.248,-102.628 954.414,-103.908 958.096,-98.2782 949.581,-105.188 949.581,-105.188"/>
</g>
<!-- Progre -->
<g id="node15" class="node"><title>Progre</title>
<ellipse fill="none" stroke="black" cx="1121" cy="-90" rx="34.1708" ry="18"/>
<text text-anchor="middle" x="1121" y="-86.3" font-family="Times,serif" font-size="14.00">Progre</text>
</g>
<!-- Student&#45;&gt;Progre -->
<g id="edge8" class="edge"><title>Student&#45;&gt;Progre</title>
<path fill="none" stroke="#0f3cf7" d="M803.106,-160.925C810.69,-154.502 819.686,-148.071 829,-144 931.056,-99.3965 969.264,-136.248 1077,-108 1080.48,-107.087 1084.06,-105.987 1087.61,-104.791"/>
<ellipse fill="none" stroke="#0f3cf7" cx="800.083" cy="-163.61" rx="4.00002" ry="4.00002"/>
<ellipse fill="#0f3cf7" stroke="#0f3cf7" cx="1091.49" cy="-103.401" rx="4.00001" ry="4.00001"/>
</g>
<!-- Result -->
<g id="node16" class="node"><title>Result</title>
<ellipse fill="none" stroke="black" cx="1207" cy="-90" rx="33.2209" ry="18"/>
<text text-anchor="middle" x="1207" y="-86.3" font-family="Times,serif" font-size="14.00">Result</text>
</g>
<!-- Student&#45;&gt;Result -->
<g id="edge10" class="edge"><title>Student&#45;&gt;Result</title>
<path fill="none" stroke="#d62224" d="M803.021,-160.724C810.598,-154.287 819.612,-147.897 829,-144 967.303,-86.5866 1018.61,-143.853 1164,-108 1166.85,-107.297 1169.76,-106.449 1172.66,-105.51"/>
<ellipse fill="none" stroke="#d62224" cx="799.999" cy="-163.424" rx="4.00002" ry="4.00002"/>
<polygon fill="#d62224" stroke="#d62224" points="1172.94,-105.41 1183.87,-106.292 1177.65,-103.732 1182.36,-102.053 1182.36,-102.053 1182.36,-102.053 1177.65,-103.732 1180.85,-97.8141 1172.94,-105.41 1172.94,-105.41"/>
</g>
<!-- Student&#45;&gt;AwardedMedal -->
<g id="edge12" class="edge"><title>Student&#45;&gt;AwardedMedal</title>
<path fill="none" stroke="#172c61" d="M744.946,-168.828C699.875,-152.807 623.689,-125.725 574.123,-108.106"/>
<ellipse fill="none" stroke="#172c61" cx="748.865" cy="-170.221" rx="4.00001" ry="4.00001"/>
<polygon fill="#172c61" stroke="#172c61" points="574.004,-108.064 566.089,-100.474 569.292,-106.389 564.581,-104.714 564.581,-104.714 564.581,-104.714 569.292,-106.389 563.074,-108.955 574.004,-108.064 574.004,-108.064"/>
</g>
<!-- Message -->
<g id="node12" class="node"><title>Message</title>
<ellipse fill="none" stroke="black" cx="988" cy="-183" rx="42.3701" ry="18"/>
<text text-anchor="middle" x="988" y="-179.3" font-family="Times,serif" font-size="14.00">Message</text>
</g>
<!-- Sqresult -->
<g id="node14" class="node"><title>Sqresult</title>
<ellipse fill="none" stroke="black" cx="1088" cy="-183" rx="39.4691" ry="18"/>
<text text-anchor="middle" x="1088" y="-179.3" font-family="Times,serif" font-size="14.00">Sqresult</text>
</g>
</g>
</svg>
